<?xml version="1.0" standalone="no"?>
<!DOCTYPE svg PUBLIC "-//W3C//DTD SVG 20010904//EN"
 "http://www.w3.org/TR/2001/REC-SVG-20010904/DTD/svg10.dtd">
<svg version="1.0" xmlns="http://www.w3.org/2000/svg"
 width="1192.000000pt" height="842.000000pt" viewBox="0 0 1192.000000 842.000000"
 preserveAspectRatio="xMidYMid meet">

<g transform="translate(0.000000,842.000000) scale(0.100000,-0.100000)"
fill="#000000" stroke="none">
<path d="M5845 6150 c-346 -81 -1021 -238 -1500 -349 -478 -112 -898 -209
-932 -218 l-63 -15 0 -1149 0 -1149 558 0 558 0 1019 1152 1020 1151 3 364 c2
341 1 363 -15 362 -10 -1 -301 -68 -648 -149z"/>
<path d="M6520 4422 l0 -1152 1022 0 1021 0 -20 23 c-11 12 -455 515 -988
1117 -532 602 -983 1111 -1001 1130 l-34 35 0 -1153z"/>
<path d="M4507 2896 c-49 -18 -67 -34 -84 -75 -30 -72 19 -135 132 -170 85
-26 105 -38 105 -59 0 -30 -21 -42 -71 -42 -49 0 -73 14 -84 50 -5 16 -15 20
-51 20 -40 0 -44 -2 -44 -24 0 -32 40 -88 75 -106 40 -20 160 -19 200 2 66 35
91 98 61 156 -18 36 -43 50 -137 81 -114 37 -133 93 -35 99 43 3 48 1 64 -27
15 -27 23 -31 60 -31 40 0 42 1 42 29 0 57 -82 112 -165 111 -16 -1 -47 -7
-68 -14z"/>
<path d="M3232 2688 l3 -213 110 0 c61 0 122 3 137 7 35 10 85 53 103 88 41
80 23 220 -36 278 -40 39 -94 52 -219 52 l-100 0 2 -212z m223 116 c60 -23 60
-215 0 -238 -9 -3 -39 -6 -66 -6 l-49 0 0 125 0 125 49 0 c27 0 57 -3 66 -6z"/>
<path d="M3710 2685 l0 -215 50 0 50 0 0 90 0 90 80 0 80 0 0 -90 0 -90 50 0
50 0 0 215 0 215 -50 0 -50 0 0 -75 0 -75 -80 0 -80 0 0 75 0 75 -50 0 -50 0
0 -215z"/>
<path d="M4200 2685 l0 -215 50 0 50 0 0 215 0 215 -50 0 -50 0 0 -215z"/>
<path d="M4967 2892 c-8 -12 -147 -404 -147 -413 0 -5 22 -9 50 -9 49 0 49 0
61 40 l12 40 77 0 77 0 12 -40 12 -40 55 0 c48 0 55 2 50 16 -4 9 -35 98 -70
198 -35 100 -67 189 -71 199 -6 13 -19 17 -60 17 -30 0 -56 -3 -58 -8z m81
-179 c12 -37 20 -69 18 -71 -2 -2 -24 -2 -49 0 l-44 3 20 68 c11 37 23 67 26
67 4 0 17 -30 29 -67z"/>
<path d="M5320 2685 l0 -215 45 0 44 0 3 135 3 135 75 -135 75 -135 58 0 57 0
0 215 0 215 -51 0 -51 0 4 -135 c3 -127 -1 -159 -16 -117 -4 9 -37 70 -73 135
l-67 117 -53 0 -53 0 0 -215z"/>
<path d="M6116 2892 c-3 -6 -33 -88 -67 -183 -34 -96 -67 -189 -75 -206 l-13
-33 54 0 54 0 12 40 12 40 77 0 77 0 12 -40 12 -40 54 0 c30 0 55 1 55 3 0 1
-33 97 -74 212 l-74 210 -55 3 c-30 2 -58 -1 -61 -6z m82 -179 c12 -37 20 -69
18 -71 -2 -2 -24 -2 -49 0 l-44 3 20 68 c11 37 23 67 26 67 4 0 17 -30 29 -67z"/>
<path d="M6400 2855 l0 -45 60 0 60 0 0 -170 0 -170 50 0 50 0 0 170 0 170 65
0 65 0 0 45 0 45 -175 0 -175 0 0 -45z"/>
<path d="M6832 2688 l3 -213 163 -3 162 -2 0 45 0 45 -110 0 -110 0 0 45 0 45
100 0 100 0 0 45 0 45 -100 0 -100 0 0 35 0 35 105 0 105 0 0 45 0 45 -160 0
-160 0 2 -212z"/>
<path d="M7260 2685 l0 -215 155 0 155 0 0 45 0 45 -105 0 -105 0 0 170 0 170
-50 0 -50 0 0 -215z"/>
<path d="M7660 2685 l0 -215 50 0 50 0 0 215 0 215 -50 0 -50 0 0 -215z"/>
<path d="M7882 2688 l3 -213 163 -3 162 -2 0 45 0 45 -110 0 -110 0 0 45 0 45
101 0 100 0 -3 43 -3 42 -97 3 -98 3 0 34 0 35 105 0 105 0 0 45 0 45 -160 0
-161 0 3 -212z"/>
<path d="M8310 2685 l0 -215 50 0 50 0 0 80 0 80 54 0 c67 0 77 -12 85 -93 l6
-62 58 -3 c51 -3 73 7 48 22 -4 3 -11 38 -13 78 -5 59 -9 75 -27 86 l-21 14
30 35 c24 27 30 43 30 79 0 87 -57 114 -237 114 l-113 0 0 -215z m243 103 c8
-12 8 -24 -1 -42 -11 -24 -16 -26 -77 -26 l-65 0 0 45 0 46 66 -3 c49 -2 70
-7 77 -20z"/>
<path d="M3411 2264 c-17 -48 -30 -89 -27 -91 2 -2 8 10 14 26 10 28 15 31 52
31 37 0 42 -3 52 -31 6 -16 12 -28 14 -26 7 7 -57 177 -66 177 -4 0 -22 -39
-39 -86z m58 -22 c-10 -2 -27 -2 -38 0 -18 3 -18 4 1 48 l20 45 18 -45 c17
-44 17 -45 -1 -48z"/>
<path d="M3622 2258 c1 -51 3 -74 5 -50 l4 42 44 0 c43 0 44 0 53 -42 8 -35
10 -37 11 -15 1 16 -4 37 -9 47 -7 13 -7 21 0 25 12 7 14 62 3 68 -5 3 -8 -11
-8 -31 0 -37 0 -37 -47 -40 l-48 -3 0 40 c0 40 0 40 43 44 l42 4 -47 1 -48 2
2 -92z"/>
<path d="M3908 2343 c6 -2 18 -2 25 0 6 3 1 5 -13 5 -14 0 -19 -2 -12 -5z"/>
<path d="M4104 2260 c0 -52 1 -74 3 -47 l4 47 54 0 54 0 4 -47 c2 -27 3 -5 3
47 0 52 -1 76 -3 53 l-4 -43 -54 0 -54 0 -4 43 c-2 23 -3 -1 -3 -53z"/>
<path d="M4354 2260 c0 -52 1 -74 3 -47 2 26 2 68 0 95 -2 26 -3 4 -3 -48z"/>
<path d="M4487 2343 l32 -4 4 -87 3 -87 2 87 c2 86 2 87 30 91 15 2 -2 4 -38
4 -36 0 -51 -2 -33 -4z"/>
<path d="M4680 2260 l0 -90 63 2 62 2 -57 3 -58 4 0 39 0 39 48 4 47 3 -47 2
c-48 2 -48 2 -48 36 0 35 0 35 53 39 l52 3 -57 2 -58 2 0 -90z"/>
<path d="M4958 2343 c6 -2 18 -2 25 0 6 3 1 5 -13 5 -14 0 -19 -2 -12 -5z"/>
<path d="M5162 2343 c27 -4 27 -5 31 -91 l3 -87 2 87 2 87 33 4 c17 2 3 4 -33
4 -36 0 -53 -2 -38 -4z"/>
<path d="M5504 2260 c0 -52 1 -74 3 -47 2 26 2 68 0 95 -2 26 -3 4 -3 -48z"/>
<path d="M5632 2258 l2 -93 5 79 6 79 50 -76 c28 -43 53 -77 58 -77 4 0 6 42
5 93 l-2 92 -3 -77 c-2 -43 -7 -78 -11 -78 -4 0 -27 32 -52 71 -24 39 -48 73
-52 75 -4 3 -7 -37 -6 -88z"/>
<path d="M5882 2343 c27 -4 27 -5 31 -91 l3 -87 2 87 2 87 33 4 c17 2 3 4 -33
4 -36 0 -53 -2 -38 -4z"/>
<path d="M6080 2260 l0 -90 58 2 57 2 -52 3 -53 4 0 39 0 39 48 4 47 3 -47 2
c-48 2 -48 2 -48 36 0 35 0 35 53 39 l52 3 -57 2 -58 2 0 -90z"/>
<path d="M6302 2258 c1 -51 3 -74 5 -50 l4 42 44 0 c43 0 44 0 53 -42 8 -35
10 -37 11 -15 1 16 -4 37 -9 47 -7 13 -7 21 0 25 12 7 14 62 3 68 -5 3 -8 -11
-8 -31 0 -37 0 -37 -47 -40 l-48 -3 0 40 c0 40 0 40 43 44 l42 4 -47 1 -48 2
2 -92z"/>
<path d="M6534 2260 c0 -52 1 -74 3 -47 2 26 2 68 0 95 -2 26 -3 4 -3 -48z"/>
<path d="M6728 2343 c6 -2 18 -2 25 0 6 3 1 5 -13 5 -14 0 -19 -2 -12 -5z"/>
<path d="M6932 2258 c1 -51 3 -74 5 -50 l4 43 42 -3 c38 -3 42 -6 45 -33 2
-16 7 -34 11 -38 11 -11 1 55 -10 69 -6 7 -4 16 6 24 20 16 19 44 -2 61 -15
13 -15 12 -2 -9 21 -33 2 -56 -50 -60 l-41 -3 0 40 c0 39 1 40 38 44 l37 4
-42 1 -43 2 2 -92z"/>
<path d="M7338 2343 c6 -2 18 -2 25 0 6 3 1 5 -13 5 -14 0 -19 -2 -12 -5z"/>
<path d="M7532 2343 c27 -4 27 -5 31 -91 l3 -87 2 87 2 87 33 4 c17 2 3 4 -33
4 -36 0 -53 -2 -38 -4z"/>
<path d="M7732 2279 c-2 -63 1 -79 16 -90 15 -12 16 -12 5 1 -7 9 -14 49 -16
90 l-3 75 -2 -76z"/>
<path d="M7842 2280 c-1 -42 -6 -81 -12 -88 -5 -7 -3 -6 6 1 11 11 14 30 11
88 l-3 74 -2 -75z"/>
<path d="M7970 2260 l0 -90 43 2 42 1 -37 4 -38 4 0 79 0 79 38 4 37 4 -42 1
-43 2 0 -90z"/>
<path d="M8224 2260 c0 -52 1 -74 3 -47 2 26 2 68 0 95 -2 26 -3 4 -3 -48z"/>
<path d="M8408 2343 c6 -2 18 -2 25 0 6 3 1 5 -13 5 -14 0 -19 -2 -12 -5z"/>
<path d="M3866 2318 c-22 -32 -20 -91 4 -119 l20 -24 -15 30 c-19 38 -19 72
-1 108 18 33 13 35 -8 5z"/>
<path d="M3964 2324 c9 -8 16 -20 16 -26 0 -6 3 -9 6 -6 8 9 -14 48 -27 48 -6
0 -3 -7 5 -16z"/>
<path d="M4920 2325 c-7 -8 -15 -34 -17 -58 -4 -33 -1 -48 16 -67 l21 -25 -15
30 c-19 38 -19 72 -1 108 16 30 15 35 -4 12z"/>
<path d="M5014 2324 c9 -8 16 -20 16 -26 0 -6 3 -9 6 -6 8 9 -14 48 -27 48 -6
0 -3 -7 5 -16z"/>
<path d="M6784 2323 c11 -14 19 -38 19 -63 0 -25 -8 -49 -19 -63 l-18 -22 24
23 c18 16 25 33 25 62 0 29 -7 46 -25 62 l-24 23 18 -22z"/>
<path d="M7301 2326 c-19 -23 4 -54 50 -66 46 -13 58 -33 39 -64 -12 -19 -12
-20 3 -7 36 29 10 70 -55 86 -31 8 -43 31 -27 51 6 8 9 14 6 14 -2 0 -10 -6
-16 -14z"/>
<path d="M7387 2319 c4 -13 8 -18 11 -10 2 7 -1 18 -6 23 -8 8 -9 4 -5 -13z"/>
<path d="M8464 2323 c11 -14 19 -38 19 -63 0 -25 -8 -49 -19 -63 l-18 -22 24
23 c18 16 25 33 25 62 0 29 -7 46 -25 62 l-24 23 18 -22z"/>
<path d="M6670 2311 c-15 -29 -12 -84 6 -107 15 -18 15 -18 5 3 -14 28 -14 79
-1 104 6 10 8 19 6 19 -3 0 -10 -9 -16 -19z"/>
<path d="M8350 2311 c-15 -29 -12 -84 6 -107 15 -18 15 -18 5 3 -14 28 -14 79
-1 104 6 10 8 19 6 19 -3 0 -10 -9 -16 -19z"/>
<path d="M8093 2260 c0 -30 2 -43 4 -27 2 15 2 39 0 55 -2 15 -4 2 -4 -28z"/>
<path d="M3971 2204 c-12 -27 -11 -28 4 -12 10 9 16 21 13 28 -2 7 -10 -1 -17
-16z"/>
<path d="M5021 2204 c-12 -27 -11 -28 4 -12 10 9 16 21 13 28 -2 7 -10 -1 -17
-16z"/>
<path d="M7291 2219 c-1 -9 7 -23 17 -30 15 -12 16 -12 6 1 -6 8 -14 22 -17
30 -5 13 -6 12 -6 -1z"/>
<path d="M3908 2173 c6 -2 18 -2 25 0 6 3 1 5 -13 5 -14 0 -19 -2 -12 -5z"/>
<path d="M4958 2173 c6 -2 18 -2 25 0 6 3 1 5 -13 5 -14 0 -19 -2 -12 -5z"/>
<path d="M6728 2173 c6 -2 18 -2 25 0 6 3 1 5 -13 5 -14 0 -19 -2 -12 -5z"/>
<path d="M7338 2173 c6 -2 18 -2 25 0 6 3 1 5 -13 5 -14 0 -19 -2 -12 -5z"/>
<path d="M7778 2173 c6 -2 18 -2 25 0 6 3 1 5 -13 5 -14 0 -19 -2 -12 -5z"/>
<path d="M8408 2173 c6 -2 18 -2 25 0 6 3 1 5 -13 5 -14 0 -19 -2 -12 -5z"/>
</g>
</svg>
