<svg width="3402" height="2299" viewBox="0 0 3402 2299" fill="none" xmlns="http://www.w3.org/2000/svg">
<path d="M1634.93 89.4795C1418.61 138.113 996.591 232.378 697.114 299.024C398.262 366.27 135.672 424.51 114.415 429.914L75.0261 438.92V1128.79V1818.67H423.895H772.764L1409.86 1126.99L2047.57 435.918L2049.45 217.368C2050.7 12.6266 2050.08 -0.58245 2040.07 0.0179631C2033.82 0.618376 1851.88 40.8461 1634.93 89.4795Z" fill="black"/>
<path d="M2056.95 1126.99V1818.67H2695.92H3334.26L3321.76 1804.86C3314.88 1797.66 3037.29 1495.65 2704.05 1134.2C2371.44 772.75 2089.46 467.139 2078.21 455.732L2056.95 434.717V1126.99Z" fill="black"/>
<path d="M798.397 2043.22C767.762 2054.03 756.508 2063.64 745.879 2088.25C727.123 2131.48 757.759 2169.31 828.408 2190.33C881.551 2205.94 894.055 2213.14 894.055 2225.75C894.055 2243.76 880.926 2250.97 849.665 2250.97C819.029 2250.97 804.024 2242.56 797.147 2220.95C794.021 2211.34 787.769 2208.94 765.261 2208.94C740.253 2208.94 737.752 2210.14 737.752 2223.35C737.752 2242.56 762.76 2276.18 784.643 2286.99C809.651 2299 884.677 2298.4 909.685 2285.79C950.949 2264.78 966.58 2226.95 947.823 2192.13C936.57 2170.51 920.939 2162.11 862.169 2143.49C790.895 2121.28 779.016 2087.65 840.287 2084.05C867.171 2082.25 870.297 2083.45 880.3 2100.26C889.679 2116.47 894.68 2118.88 917.813 2118.88C942.822 2118.88 944.072 2118.28 944.072 2101.46C944.072 2067.24 892.805 2034.22 840.912 2034.82C830.908 2035.42 811.527 2039.02 798.397 2043.22Z" fill="black"/>
<path d="M1.25043 2168.11L3.12607 2296H71.8995C110.038 2296 148.176 2294.2 157.554 2291.79C179.436 2285.79 210.697 2259.97 221.951 2238.96C247.585 2190.93 236.331 2106.87 199.443 2072.04C174.435 2048.63 140.673 2040.82 62.5213 2040.82H0L1.25043 2168.11ZM140.673 2098.46C178.186 2112.27 178.186 2227.55 140.673 2241.36C135.046 2243.16 116.29 2244.96 99.4089 2244.96H68.7735V2169.91V2094.86H99.4089C116.29 2094.86 135.046 2096.66 140.673 2098.46Z" fill="black"/>
<path d="M300.103 2169.91V2299H331.363H362.624V2244.96V2190.93H412.641H462.658V2244.96V2299H493.919H525.179V2169.91V2040.82H493.919H462.658V2085.85V2130.88H412.641H362.624V2085.85V2040.82H331.363H300.103V2169.91Z" fill="black"/>
<path d="M606.457 2169.91V2299H637.718H668.979V2169.91V2040.82H637.718H606.457V2169.91Z" fill="black"/>
<path d="M1086 2045.63C1080.99 2052.83 994.089 2288.19 994.089 2293.6C994.089 2296.6 1007.84 2299 1025.35 2299C1055.99 2299 1055.99 2299 1063.49 2274.98L1070.99 2250.97H1119.13H1167.27L1174.78 2274.98L1182.28 2299H1216.67C1246.68 2299 1251.05 2297.8 1247.93 2289.39C1245.43 2283.99 1226.04 2230.55 1204.16 2170.51C1182.28 2110.47 1162.27 2057.03 1159.77 2051.03C1156.02 2043.22 1147.89 2040.82 1122.26 2040.82C1103.5 2040.82 1087.25 2042.62 1086 2045.63ZM1136.64 2153.1C1144.14 2175.31 1149.14 2194.53 1147.89 2195.73C1146.64 2196.93 1132.89 2196.93 1117.26 2195.73L1089.75 2193.93L1102.25 2153.1C1109.13 2130.88 1116.63 2112.87 1118.51 2112.87C1121.01 2112.87 1129.14 2130.88 1136.64 2153.1Z" fill="black"/>
<path d="M1306.7 2169.91V2299H1334.83H1362.34L1364.22 2217.94L1366.09 2136.89L1412.98 2217.94L1459.87 2299H1496.14H1531.77V2169.91V2040.82H1499.89H1468L1470.5 2121.88C1472.38 2198.13 1469.88 2217.34 1460.5 2192.13C1458 2186.72 1437.37 2150.1 1414.86 2111.07L1372.97 2040.82H1339.83H1306.7V2169.91Z" fill="black"/>
<path d="M1804.37 2045.63C1802.49 2049.23 1783.73 2098.46 1762.48 2155.5C1741.22 2213.14 1720.59 2268.98 1715.59 2279.19L1707.46 2299H1741.22H1774.98L1782.48 2274.98L1789.99 2250.97H1838.13H1886.27L1893.77 2274.98L1901.27 2299H1935.04C1953.79 2299 1969.42 2298.4 1969.42 2297.2C1969.42 2296.6 1948.79 2238.96 1923.16 2169.91L1876.89 2043.82L1842.5 2042.02C1823.75 2040.82 1806.24 2042.62 1804.37 2045.63ZM1855.63 2153.1C1863.14 2175.31 1868.14 2194.53 1866.89 2195.73C1865.64 2196.93 1851.88 2196.93 1836.25 2195.73L1808.74 2193.93L1821.25 2153.1C1828.12 2130.88 1835.63 2112.87 1837.5 2112.87C1840 2112.87 1848.13 2130.88 1855.63 2153.1Z" fill="black"/>
<path d="M1981.93 2067.84V2094.86H2019.44H2056.95V2196.93V2299H2088.21H2119.47V2196.93V2094.86H2160.11H2200.75V2067.84V2040.82H2091.34H1981.93V2067.84Z" fill="black"/>
<path d="M2252.02 2168.11L2253.89 2296L2355.8 2297.8L2457.09 2299V2271.98V2244.96H2388.32H2319.54V2217.94V2190.93H2382.06H2444.59V2163.91V2136.89H2382.06H2319.54V2115.87V2094.86H2385.19H2450.84V2067.84V2040.82H2350.8H2250.77L2252.02 2168.11Z" fill="black"/>
<path d="M2519.61 2169.91V2299H2616.52H2713.43V2271.98V2244.96H2647.78H2582.13V2142.89V2040.82H2550.87H2519.61V2169.91Z" fill="black"/>
<path d="M2769.7 2169.91V2299H2800.96H2832.22V2169.91V2040.82H2800.96H2769.7V2169.91Z" fill="black"/>
<path d="M2908.49 2168.11L2910.37 2296L3012.28 2297.8L3113.56 2299V2271.98V2244.96H3044.79H2976.02V2217.94V2190.93H3039.16H3101.68L3099.81 2165.11L3097.93 2139.89L3037.29 2138.09L2976.02 2136.29V2115.87V2094.86H3041.66H3107.31V2067.84V2040.82H3007.28H2906.62L2908.49 2168.11Z" fill="black"/>
<path d="M3176.08 2169.91V2299H3207.35H3238.61V2250.97V2202.93H3272.37C3314.26 2202.93 3320.51 2210.14 3325.51 2258.77L3329.26 2296L3365.52 2297.8C3397.41 2299.6 3411.16 2293.6 3395.53 2284.59C3393.03 2282.79 3388.66 2261.77 3387.41 2237.76C3384.28 2202.33 3381.78 2192.73 3370.53 2186.12L3357.4 2177.72L3376.15 2156.7C3391.16 2140.49 3394.91 2130.88 3394.91 2109.27C3394.91 2057.03 3359.27 2040.82 3246.73 2040.82H3176.08V2169.91ZM3328.01 2108.07C3333.01 2115.27 3333.01 2122.48 3327.39 2133.29C3320.51 2147.7 3317.38 2148.9 3279.24 2148.9H3238.61V2121.88V2094.26L3279.87 2096.06C3310.51 2097.26 3323.63 2100.26 3328.01 2108.07Z" fill="black"/>
</svg>
