<svg width="4472" height="1381" viewBox="0 0 4472 1381" fill="none" xmlns="http://www.w3.org/2000/svg">
<path d="M373.439 9.13553C318.771 38.5723 242.236 158.619 200.324 281.426C192.428 303.503 185.746 320.981 184.532 320.061C183.317 319.602 186.354 291.545 191.213 258.428C203.362 176.557 205.184 111.704 195.465 104.345C189.998 100.206 185.139 99.7456 177.242 103.425C159.02 111.704 58.7957 269.007 30.8544 332.94C7.77249 384.914 4.12797 399.173 1.09088 444.248C-1.3388 487.943 -0.123963 497.602 8.98733 508.181C27.2099 529.339 33.2841 515.54 31.4618 458.966C29.0322 404.692 35.1064 375.255 58.1883 320.981C72.7664 286.485 162.057 143.441 166.309 147.12C169.953 149.88 152.946 280.966 139.582 349.958C132.901 384.914 116.501 459.426 103.137 515.54C25.3876 843.484 24.7802 847.164 50.2918 839.805C61.2254 836.585 76.4109 789.67 127.434 599.711C191.213 362.377 245.881 219.332 312.09 116.764C381.335 10.0554 422.64 10.5153 454.226 117.224C462.122 146.2 464.552 175.177 464.552 259.348C463.944 374.796 457.263 416.191 418.388 528.419L400.773 580.853L344.283 625.008C246.488 700.44 173.598 777.252 126.219 853.143C98.278 899.138 89.1667 940.994 104.96 951.113C156.59 983.309 313.304 818.187 403.202 637.427C430.536 583.613 431.144 582.693 496.138 529.339C582.391 458.966 635.237 412.971 668.645 378.935C703.875 343.519 705.697 340.759 701.445 335.24C699.016 332.48 685.045 343.519 669.86 359.157C627.948 402.852 449.974 553.716 445.114 549.576C443.9 549.116 447.544 538.078 452.403 525.659C468.804 483.344 491.278 388.134 498.567 330.64C514.36 201.854 483.989 52.3707 433.573 14.1949C410.492 -3.28317 398.343 -4.20302 373.439 9.13553ZM348.535 690.321C308.445 767.593 282.326 807.608 242.236 854.983C195.465 910.637 152.946 935.014 134.116 917.536C111.641 897.298 171.776 799.329 256.207 718.378C303.586 673.303 378.906 613.969 381.335 619.949C382.55 622.248 367.972 653.985 348.535 690.321Z" fill="black"/>
<path d="M2650.65 27.9934C2606.31 68.0091 2527.96 240.49 2432.59 507.721C2417.41 550.496 2403.43 589.132 2402.22 592.812C2400.4 596.491 2391.89 602.471 2382.78 605.69C2341.48 619.949 2308.07 653.985 2308.07 681.122C2308.07 702.74 2315.97 715.618 2337.23 729.417L2353.02 739.536L2342.69 770.812C2336.62 787.831 2322.04 818.647 2310.5 838.885C2286.81 881.2 2286.2 885.8 2299.57 900.058C2321.43 923.976 2330.54 909.717 2365.77 799.329L2383.39 745.515L2414.37 743.215C2448.99 740.456 2500.62 722.518 2548 696.301L2578.37 679.742L2601.45 699.06C2613.6 709.639 2634.86 734.936 2648.22 755.174C2668.27 785.531 2672.52 796.11 2672.52 819.107C2672.52 848.544 2679.81 864.182 2693.78 864.182C2698.64 864.182 2703.5 863.722 2703.5 862.802C2704.11 862.342 2706.54 803.009 2708.97 730.797C2711.4 658.585 2715.65 595.112 2718.08 589.132C2722.33 579.473 2725.97 579.013 2782.46 579.013H2842.6V707.339C2842.6 778.172 2840.17 841.185 2837.13 847.624C2833.49 853.603 2826.2 859.583 2820.12 860.963C2814.05 862.342 2834.09 863.262 2863.86 863.262C2894.23 863.262 2913.06 861.882 2906.38 860.963C2899.7 859.583 2892.41 856.363 2889.98 853.143C2887.55 850.384 2885.12 787.371 2885.12 713.319V579.013H2945.86C2999.31 579.013 3006.6 579.933 3006.6 586.832C3007.21 591.432 3010.85 588.212 3015.71 579.473C3026.65 560.615 3027.25 556.936 3017.54 564.295C3012.07 568.434 2971.98 569.814 2874.18 569.814H2738.12L2770.92 541.757C2897.27 433.209 2990.2 343.519 2987.16 332.48C2985.95 327.421 2973.8 336.62 2948.9 361.917C2900.3 410.672 2797.65 501.282 2753.31 534.398L2717.47 560.615L2719.9 320.062C2722.94 72.1486 2720.51 39.4922 2698.64 21.5541C2684.06 9.59543 2669.48 11.4352 2650.65 27.9934ZM2681.03 44.0917C2688.31 63.8695 2690.74 223.012 2686.49 398.253C2681.03 611.67 2686.49 589.132 2628.79 625.928L2600.24 643.866L2564.4 622.709C2528.56 601.551 2485.44 588.212 2453.24 588.212H2436.84L2475.72 471.845C2559.54 223.472 2622.71 73.5285 2655.51 41.7919C2664.62 33.9728 2677.38 34.8927 2681.03 44.0917ZM2675.56 721.138C2671.91 731.717 2670.7 730.797 2654.91 709.179C2645.79 696.301 2631.82 679.742 2624.54 671.923L2611.78 658.125L2643.37 637.427L2675.56 616.269L2677.38 663.184C2678.6 688.941 2677.38 715.158 2675.56 721.138ZM2509.73 637.427C2525.53 643.866 2543.14 653.525 2549.22 658.125C2559.54 666.864 2558.93 667.324 2544.96 676.063C2536.46 680.662 2508.52 693.081 2481.79 703.2C2429.55 723.438 2390.07 728.037 2394.93 713.319C2396.75 709.179 2402.83 689.861 2408.29 671.003C2424.09 620.869 2425.91 618.569 2455.67 622.249C2469.04 624.088 2493.33 630.988 2509.73 637.427ZM2374.28 675.603C2358.49 721.598 2349.37 726.657 2326.29 704.58C2312.93 691.701 2313.54 675.603 2328.11 662.264C2339.05 652.145 2382.78 629.148 2385.82 631.908C2387.03 632.827 2382.17 652.605 2374.28 675.603Z" fill="black"/>
<path d="M3055.2 573.034C3060.06 574.414 3066.13 578.093 3068.56 580.853C3070.99 583.613 3073.42 646.626 3073.42 720.678V855.443L3060.06 859.582C3050.94 862.342 3092.86 863.722 3178.5 863.722L3310.31 864.182V848.084V832.445L3295.13 843.484C3281.16 854.523 3276.3 854.983 3214.34 854.983C3118.98 854.983 3118.98 854.983 3118.98 778.171V719.298L3181.54 717.918C3217.38 716.998 3248.36 718.838 3255.64 721.598C3265.97 725.737 3267.79 725.277 3267.79 718.378C3267.79 711.019 3260.5 710.099 3193.69 710.099H3118.98V645.706V581.313H3194.9H3270.83L3281.16 597.411L3292.09 613.51V591.432V569.814L3169.39 570.274C3101.36 570.274 3050.34 571.654 3055.2 573.034Z" fill="black"/>
<path d="M3334.61 573.954L3349.79 577.173L3351.62 716.078L3352.83 855.443L3339.47 859.582C3330.36 862.342 3371.66 863.722 3457.91 863.722L3589.72 864.182L3589.12 835.205C3588.51 810.828 3587.9 808.528 3583.04 820.947C3573.32 845.784 3557.53 852.683 3502.26 854.063C3436.05 856.363 3411.14 849.004 3402.03 824.166C3398.39 814.047 3395.35 760.693 3395.35 698.14C3395.35 587.292 3397.17 579.013 3419.65 573.034C3424.51 571.654 3404.46 570.734 3374.09 570.734C3343.11 570.734 3326.1 572.114 3334.61 573.954Z" fill="black"/>
<path d="M3641.96 573.034C3649.25 573.954 3657.15 579.473 3658.97 584.993C3663.83 599.711 3663.22 847.164 3657.76 853.143C3655.33 856.363 3648.04 859.583 3641.36 860.963C3634.67 861.883 3654.11 863.262 3683.88 863.722C3731.86 864.182 3736.72 863.262 3723.36 858.203L3708.17 852.224L3706.35 723.898C3705.74 653.065 3706.35 590.512 3708.17 584.993C3709.99 579.473 3717.28 573.954 3725.18 573.034C3732.47 572.114 3714.25 571.194 3683.88 571.194C3654.11 571.194 3635.28 572.114 3641.96 573.034Z" fill="black"/>
<path d="M3784.1 573.034C3788.96 574.414 3795.03 578.093 3797.46 580.853C3799.89 583.613 3802.32 646.626 3802.32 720.678V855.443L3788.96 859.582C3779.85 862.342 3821.76 863.722 3907.4 863.722L4039.21 864.182V848.084V832.445L4024.03 843.484C4010.06 854.523 4005.2 854.983 3943.24 854.983C3847.88 854.983 3847.88 854.983 3847.88 778.171V719.298L3910.44 717.918C3946.28 716.998 3977.26 718.838 3984.55 721.598C3994.87 725.737 3996.7 725.277 3996.7 718.378C3996.7 711.019 3989.41 710.099 3922.59 710.099H3847.88V645.706V581.313H3923.81H3999.73L4010.06 597.411L4020.99 613.51V591.432V569.814L3898.29 570.274C3830.26 570.274 3779.24 571.654 3784.1 573.034Z" fill="black"/>
<path d="M4075.66 573.034C4080.52 574.414 4086.59 578.093 4089.02 580.853C4091.45 583.613 4093.88 644.786 4093.88 716.998C4093.88 789.21 4091.45 850.384 4089.02 853.143C4086.59 855.903 4080.52 859.583 4075.66 860.963C4070.8 862.342 4089.63 863.262 4118.18 863.722C4154.02 863.722 4165.56 862.342 4156.45 859.583C4138.83 854.063 4135.19 837.505 4137.62 774.492L4139.44 723.898H4172.85H4206.26L4249.99 772.192C4273.68 798.869 4304.05 829.226 4316.81 839.805C4330.17 850.844 4339.28 859.583 4337.46 859.583C4336.24 859.583 4294.33 866.022 4245.74 873.381C4161.91 886.26 3999.13 919.836 3945.06 935.014C3904.37 946.513 3931.09 943.294 3994.27 929.035C4112.71 902.358 4311.34 868.322 4341.71 869.242C4347.18 869.242 4214.15 896.379 4045.29 929.035C3688.73 998.028 3542.35 1027.92 3440.3 1053.22C3363.76 1072.08 3334.61 1084.96 3369.84 1084.96C3379.56 1084.96 3419.04 1080.82 3456.7 1075.76C3494.97 1070.7 3528.98 1066.56 3532.02 1067.02C3551.46 1067.94 3249.57 1123.59 3173.64 1132.79C3024.82 1151.65 2801.9 1188.91 2808.58 1193.97C2809.8 1195.35 2840.78 1190.75 2877.22 1184.31C3002.35 1161.77 3145.09 1141.53 3088.6 1154.41C3032.11 1167.29 2683.45 1228.46 2660.37 1229.84C2626.36 1231.22 2599.63 1236.74 2599.63 1241.34C2599.63 1247.78 2789.15 1216.96 3091.64 1161.31C3227.1 1136.47 3230.13 1136.01 3351.62 1132.79C3419.04 1130.95 3474.31 1130.49 3474.31 1131.87C3474.31 1133.25 3457.31 1138.77 3436.65 1144.75C3375.31 1161.31 3377.13 1162.69 3456.7 1169.59C3474.92 1170.97 3488.89 1170.05 3495.57 1165.91C3505.29 1160.39 3502.86 1159.47 3474.31 1156.71C3456.7 1154.87 3443.94 1152.57 3445.77 1151.19C3451.84 1146.59 3513.8 1135.55 3533.84 1135.55C3551.46 1135.55 3553.89 1136.93 3550.24 1145.21C3545.99 1154.41 3546.6 1154.41 3565.43 1147.05C3577.58 1142.45 3583.65 1136.93 3582.44 1131.87C3580.61 1124.97 3567.25 1124.05 3434.83 1124.97L3289.05 1126.35L3343.72 1114.85C3374.09 1108.42 3573.32 1070.24 3787.14 1029.76C4138.22 963.531 4237.23 943.753 4217.8 942.834C4214.15 942.374 4137.62 955.712 4047.72 972.27C3756.16 1026.08 3400.21 1080.82 3391.1 1073.92C3382.59 1067.48 3522.91 1038.04 3986.37 948.813C4421.89 865.102 4444.36 860.503 4463.8 852.683C4478.38 846.704 4475.95 846.704 4436.47 849.004L4392.73 851.764L4366.01 832.906C4342.32 816.347 4251.81 722.978 4251.81 715.158C4251.81 713.319 4261.53 705.5 4273.68 697.68C4302.83 678.362 4312.55 662.264 4312.55 633.287C4312.55 603.391 4301.62 590.512 4267.6 578.553C4246.95 571.654 4228.12 570.274 4154.62 570.274C4106.03 570.274 4070.8 571.654 4075.66 573.034ZM4223.87 585.453C4252.42 594.652 4272.46 620.869 4273.07 650.766C4273.07 692.621 4241.49 713.779 4175.88 714.239L4139.44 714.699L4137.62 646.626L4135.79 579.013H4169.81C4188.64 579.013 4212.94 581.773 4223.87 585.453ZM3557.53 1064.72C3555.71 1066.1 3550.24 1066.56 3545.99 1065.18C3541.13 1063.8 3542.95 1062.42 3549.63 1062.42C3556.32 1061.96 3559.96 1063.34 3557.53 1064.72ZM3126.26 1147.51C3124.44 1148.89 3118.97 1149.35 3114.72 1147.97C3109.86 1146.59 3111.69 1145.21 3118.37 1145.21C3125.05 1144.75 3128.69 1146.13 3126.26 1147.51Z" fill="black"/>
<path d="M1144.25 587.753C1087.16 598.791 1053.75 641.567 1068.93 684.342C1079.87 715.619 1099.3 728.497 1164.91 746.895C1255.41 773.112 1281.53 801.169 1253.59 841.645C1234.76 869.702 1158.83 882.121 1105.38 866.022C1079.26 858.203 1066.5 844.865 1057.39 814.968C1053.14 800.249 1051.93 804.849 1051.32 840.725L1050.71 883.96L1131.5 881.661C1222.61 879.361 1242.05 874.301 1265.74 846.704C1296.11 811.748 1291.25 772.192 1253.59 743.676C1237.8 731.257 1216.54 722.978 1174.02 711.939C1101.13 693.081 1084.73 680.202 1088.37 647.086C1095.66 593.272 1181.31 574.874 1239.62 614.43C1252.37 623.169 1263.31 629.608 1263.31 628.688C1263.31 619.489 1248.12 596.492 1239.62 593.272C1224.43 586.833 1165.51 583.613 1144.25 587.753Z" fill="black"/>
<path d="M1477.12 592.812C1474.08 599.251 1439.46 664.564 1400.59 738.156C1345.92 840.725 1326.48 873.381 1316.15 877.061C1304.61 881.2 1307.65 882.12 1333.16 882.12C1350.17 881.66 1359.89 880.74 1356.24 879.361C1344.7 876.141 1345.92 872.921 1379.33 808.528L1410.3 749.195H1468.62H1527.54L1560.34 811.748C1587.67 862.802 1591.92 874.761 1584.63 878.441C1579.17 880.74 1593.75 882.58 1624.72 882.12C1656.31 882.12 1669.07 880.74 1661.17 877.981C1653.88 876.141 1645.38 871.541 1641.73 868.322C1638.09 864.642 1603.46 802.089 1563.98 728.497C1480.16 570.734 1484.41 577.633 1477.12 592.812ZM1497.17 693.081C1509.92 716.538 1518.43 736.776 1516.6 738.156C1515.39 739.536 1491.7 739.996 1464.97 739.076L1416.38 737.696L1441.28 690.321C1454.65 664.564 1468.01 644.786 1470.44 646.626C1472.87 648.926 1485.02 669.623 1497.17 693.081Z" fill="black"/>
<path d="M533.191 595.571C546.554 602.471 546.554 603.391 546.554 738.156V873.841L533.191 877.981C522.864 880.74 534.405 882.12 570.851 882.12C599.399 881.66 618.229 880.74 613.37 879.36C592.11 873.841 589.073 863.262 589.073 798.869V735.396H698.409H807.744V794.73C807.744 858.203 802.885 875.681 785.27 879.36C779.196 880.74 797.418 881.66 825.967 881.66C862.412 882.12 873.346 880.74 864.234 877.981L850.264 873.841V735.396V596.951L864.234 592.812C873.346 590.052 862.412 588.672 825.967 589.132C797.418 589.132 779.196 590.052 785.27 591.432C802.885 594.652 807.744 612.59 807.744 671.463V726.197H698.409H589.073V667.324C589.073 607.99 592.718 596.951 613.37 591.432C618.229 590.052 599.399 588.672 570.851 588.672C522.864 588.212 520.435 588.672 533.191 595.571Z" fill="black"/>
<path d="M923.154 591.432C946.236 597.871 947.451 605.23 947.451 737.236C947.451 808.528 945.021 868.782 942.591 871.541C940.162 874.761 932.873 877.981 926.191 879.361C919.509 880.28 938.947 881.66 968.71 882.12C1016.7 882.58 1021.56 881.66 1008.19 876.601L993.007 870.622V735.396V600.171L1008.19 594.192C1021.56 589.132 1016.7 588.212 968.71 588.672C938.947 588.672 918.295 590.052 923.154 591.432Z" fill="black"/>
<path d="M1692.15 593.272C1724.34 600.171 1727.38 611.21 1729.81 732.636C1732.24 856.363 1730.41 872.001 1710.98 877.981C1701.26 880.74 1707.94 882.12 1737.1 882.12C1766.86 882.12 1772.93 881.2 1762.61 877.981C1755.32 875.681 1747.42 871.081 1746.21 867.862C1744.39 864.182 1743.78 811.288 1744.39 749.655L1746.21 637.887L1898.06 760.233L2049.92 882.58L2052.95 741.375C2054.78 663.184 2057.21 599.251 2057.81 598.331C2058.42 597.871 2065.1 595.111 2073 592.812C2082.72 590.052 2076.04 588.672 2046.88 589.132C2025.01 589.132 2012.26 590.052 2018.33 591.432C2024.41 592.812 2031.69 598.791 2035.34 604.77C2042.02 619.029 2042.63 818.187 2035.95 818.187C2033.52 818.187 1966.7 766.673 1888.34 703.2L1746.21 588.212L1709.76 588.672C1678.18 589.132 1675.75 589.592 1692.15 593.272Z" fill="black"/>
<path d="M3363.16 1195.35C3236.21 1228 3184.58 1249.16 3207.66 1259.74C3215.55 1263.88 3250.78 1267.56 3299.99 1270.32C3318.82 1271.24 3297.56 1278.14 3176.68 1311.71C3050.34 1346.21 3029.08 1350.81 3021.79 1345.29C3014.5 1340.23 3008.42 1339.77 2987.16 1343.91L2961.05 1349.43L2981.09 1350.81C2991.42 1351.73 3000.53 1354.03 3000.53 1355.87C3000.53 1360.47 2952.54 1370.13 2932.5 1370.13C2920.35 1369.67 2920.96 1368.75 2939.79 1360.47C2955.58 1353.57 2957.4 1352.19 2945.86 1354.49C2925.82 1358.63 2899.09 1368.75 2894.23 1374.73C2888.76 1381.63 2917.31 1380.25 2959.22 1371.97C2993.85 1365.53 2996.28 1365.53 3007.82 1373.35C3018.75 1380.71 3030.9 1381.63 3109.26 1380.71C3157.85 1380.25 3204.62 1377.95 3213.12 1375.19C3224.06 1371.97 3206.44 1371.51 3152.38 1373.35C3080.71 1375.65 3024.82 1370.59 3024.82 1361.85C3024.82 1360.01 3058.23 1349.43 3099.54 1338.39C3322.46 1278.6 3380.77 1263.88 3412.36 1261.58C3431.19 1259.74 3453.66 1255.6 3462.17 1251.92C3476.74 1245.94 3475.53 1245.48 3446.98 1247.78C3430.58 1249.16 3395.96 1252.38 3371.05 1255.14C3320.64 1261.12 3239.24 1258.36 3228.92 1250.54C3217.38 1241.8 3238.64 1233.98 3356.48 1204.54C3417.83 1188.91 3468.24 1175.11 3468.24 1174.19C3468.24 1169.59 3448.2 1173.73 3363.16 1195.35Z" fill="black"/>
<path d="M2760.6 1202.25C2736.91 1208.68 2736.3 1208.68 2757.56 1205.92C2782.46 1202.71 2807.37 1195.81 2794.01 1195.81C2789.15 1195.81 2773.96 1199.03 2760.6 1202.25Z" fill="black"/>
<path d="M2719.9 1212.36C2724.15 1213.74 2729.62 1213.28 2731.44 1211.9C2733.87 1210.52 2730.23 1209.14 2723.54 1209.6C2716.86 1209.6 2715.04 1210.98 2719.9 1212.36Z" fill="black"/>
<path d="M2677.38 1221.56C2681.63 1222.94 2687.1 1222.48 2688.92 1221.1C2691.35 1219.72 2687.71 1218.34 2681.02 1218.8C2674.34 1218.8 2672.52 1220.18 2677.38 1221.56Z" fill="black"/>
</svg>
