<svg width="1532" height="265" viewBox="0 0 1532 265" fill="none" xmlns="http://www.w3.org/2000/svg">
<path d="M798.398 8.41385C767.762 19.2213 756.508 28.8279 745.88 53.4448C727.123 96.6745 757.759 134.501 828.408 155.515C881.551 171.126 894.055 178.331 894.055 190.939C894.055 208.952 880.926 216.157 849.665 216.157C819.03 216.157 804.025 207.751 797.147 186.136C794.021 176.529 787.769 174.128 765.261 174.128C740.253 174.128 737.752 175.329 737.752 188.538C737.752 207.751 762.76 241.374 784.643 252.181C809.651 264.19 884.677 263.589 909.686 250.981C950.95 229.966 966.58 192.14 947.824 157.316C936.57 135.701 920.939 127.296 862.169 108.683C790.895 86.4675 779.016 52.8444 840.287 49.2419C867.171 47.4407 870.297 48.6415 880.301 65.4531C889.679 81.6642 894.68 84.0658 917.813 84.0658C942.822 84.0658 944.072 83.4654 944.072 66.6539C944.072 32.4304 892.805 -0.592338 840.912 0.00807458C830.909 0.608487 811.527 4.21096 798.398 8.41385Z" fill="black"/>
<path d="M1.25043 133.3L3.12607 261.188H71.8995C110.038 261.188 148.176 259.386 157.554 256.985C179.436 250.981 210.697 225.163 221.951 204.148C247.585 156.115 236.331 72.0576 199.443 37.2336C174.435 13.8175 140.673 6.0121 62.5213 6.0121H0L1.25043 133.3ZM140.673 63.6518C178.186 77.4613 178.186 192.741 140.673 206.55C135.046 208.351 116.29 210.153 99.4089 210.153H68.7735V135.101V60.0493H99.4089C116.29 60.0493 135.046 61.8505 140.673 63.6518Z" fill="black"/>
<path d="M300.103 135.101V264.19H331.363H362.624V210.153V156.116H412.641H462.658V210.153V264.19H493.919H525.179V135.101V6.01216H493.919H462.658V51.0432V96.0742H412.641H362.624V51.0432V6.01216H331.363H300.103V135.101Z" fill="black"/>
<path d="M606.457 135.101V264.19H637.718H668.979V135.101V6.01216H637.718H606.457V135.101Z" fill="black"/>
<path d="M1086 10.8155C1080.99 18.0204 994.089 253.382 994.089 258.786C994.089 261.788 1007.84 264.19 1025.35 264.19C1055.99 264.19 1055.99 264.19 1063.49 240.173L1070.99 216.157H1119.13H1167.27L1174.78 240.173L1182.28 264.19H1216.67C1246.68 264.19 1251.05 262.989 1247.93 254.583C1245.43 249.18 1226.04 195.743 1204.16 135.701C1182.28 75.6601 1162.27 22.2233 1159.77 16.2192C1156.02 8.41381 1147.89 6.01216 1122.26 6.01216C1103.5 6.01216 1087.25 7.8134 1086 10.8155ZM1136.64 118.289C1144.14 140.505 1149.14 159.718 1147.89 160.919C1146.64 162.12 1132.89 162.12 1117.26 160.919L1089.75 159.118L1102.25 118.289C1109.13 96.0742 1116.63 78.0618 1118.51 78.0618C1121.01 78.0618 1129.14 96.0742 1136.64 118.289Z" fill="black"/>
<path d="M1306.7 135.101V264.19H1334.83H1362.34L1364.22 183.134L1366.09 102.078L1412.98 183.134L1459.87 264.19H1496.14H1531.77V135.101V6.01216H1499.89H1468L1470.5 87.068C1472.38 163.32 1469.88 182.534 1460.5 157.316C1458 151.913 1437.37 115.287 1414.86 76.2605L1372.97 6.01216H1339.83H1306.7V135.101Z" fill="black"/>
</svg>
