<svg width="1593" height="276" viewBox="0 0 1593 276" fill="none" xmlns="http://www.w3.org/2000/svg">
<path d="M830.217 9.33232C798.386 20.5841 786.693 30.5857 775.65 56.2149C756.162 101.222 787.992 140.603 861.398 162.482C916.614 178.735 929.606 186.236 929.606 199.363C929.606 218.116 915.964 225.617 883.484 225.617C851.654 225.617 836.063 216.866 828.917 194.362C825.669 184.36 819.173 181.86 795.788 181.86C769.803 181.86 767.205 183.11 767.205 196.862C767.205 216.866 793.189 251.871 815.925 263.123C841.91 275.625 919.862 275 945.846 261.873C988.72 239.994 1004.96 200.613 985.472 164.357C973.779 141.854 957.539 133.102 896.476 113.724C822.421 90.5954 810.079 55.5898 873.74 51.8392C901.673 49.9639 904.921 51.2141 915.315 68.7169C925.059 85.5946 930.256 88.095 954.291 88.095C980.275 88.095 981.575 87.4699 981.575 69.9671C981.575 34.3363 928.307 -0.0441847 874.39 0.580916C863.996 1.20602 843.858 4.95662 830.217 9.33232Z" fill="#F7B500"/>
<path d="M1.97011 139.353L3.91893 272.5H75.3755C115.001 272.5 154.627 270.625 164.372 268.124C187.108 261.873 219.588 234.994 231.281 213.115C257.915 163.107 246.222 75.5928 207.895 39.3368C181.911 14.9579 146.832 6.83153 65.6315 6.83153H0.670898L1.97011 139.353ZM146.832 66.8413C185.808 81.2187 185.808 201.238 146.832 215.616C140.986 217.491 121.498 219.366 103.958 219.366H72.1275V141.229V63.0907H103.958C121.498 63.0907 140.986 64.966 146.832 66.8413Z" fill="#F7B500"/>
<path d="M312.482 141.229V275.625H344.962H377.442V219.366V163.107H429.411H481.379V219.366V275.625H513.859H546.339V141.229V6.83153H513.859H481.379V53.7142V100.597H429.411H377.442V53.7142V6.83153H344.962H312.482V141.229Z" fill="#F7B500"/>
<path d="M630.788 141.229V275.625H663.268H695.749V141.229V6.83153H663.268H630.788V141.229Z" fill="#F7B500"/>
<path d="M1129.04 11.8324C1123.84 19.3336 1033.54 264.374 1033.54 270C1033.54 273.125 1047.83 275.625 1066.02 275.625C1097.85 275.625 1097.85 275.625 1105.65 250.621L1113.44 225.617H1163.46H1213.48L1221.28 250.621L1229.07 275.625H1264.8C1295.98 275.625 1300.53 274.375 1297.28 265.624C1294.68 259.998 1274.55 204.364 1251.81 141.854C1229.07 79.3434 1208.29 23.7093 1205.69 17.4583C1201.79 9.33194 1193.35 6.83153 1166.71 6.83153C1147.22 6.83153 1130.33 8.70684 1129.04 11.8324ZM1181.65 123.726C1189.45 146.854 1194.65 166.858 1193.35 168.108C1192.05 169.358 1177.76 169.358 1161.52 168.108L1132.93 166.233L1145.92 123.726C1153.07 100.597 1160.87 81.8438 1162.81 81.8438C1165.41 81.8438 1173.86 100.597 1181.65 123.726Z" fill="#F7B500"/>
<path d="M1358.35 141.229V275.625H1387.58H1416.16L1418.11 191.237L1420.06 106.848L1468.78 191.237L1517.5 275.625H1555.18H1592.2V141.229V6.83153H1559.07H1525.94L1528.54 91.2203C1530.49 170.608 1527.89 190.612 1518.15 164.357C1515.55 158.731 1494.11 120.6 1470.73 79.9685L1427.2 6.83153H1392.77H1358.35V141.229Z" fill="#F7B500"/>
</svg>
