<svg width="7597" height="4740" viewBox="0 0 7597 4740" fill="none" xmlns="http://www.w3.org/2000/svg">
<path d="M3902.13 2245.84C3869.7 2256.7 3857.79 2266.35 3846.54 2291.08C3826.68 2334.51 3859.11 2372.51 3933.89 2393.62C3990.15 2409.31 4003.38 2416.55 4003.38 2429.21C4003.38 2447.31 3989.48 2454.55 3956.39 2454.55C3923.97 2454.55 3908.08 2446.1 3900.8 2424.39C3897.49 2414.74 3890.88 2412.32 3867.05 2412.32C3840.58 2412.32 3837.93 2413.53 3837.93 2426.8C3837.93 2446.1 3864.4 2479.88 3887.57 2490.74C3914.04 2502.81 3993.45 2502.2 4019.93 2489.54C4063.61 2468.42 4080.15 2430.42 4060.3 2395.43C4048.38 2373.72 4031.84 2365.27 3969.63 2346.57C3894.18 2324.26 3881.61 2290.48 3946.47 2286.86C3974.92 2285.05 3978.23 2286.25 3988.82 2303.14C3998.75 2319.43 4004.04 2321.84 4028.53 2321.84C4055 2321.84 4056.33 2321.24 4056.33 2304.35C4056.33 2269.97 4002.06 2236.79 3947.13 2237.39C3936.54 2238 3916.02 2241.62 3902.13 2245.84Z" fill="#F7B500"/>
<path d="M3058.33 2371.31L3060.32 2499.79H3133.11C3173.48 2499.79 3213.85 2497.98 3223.78 2495.57C3246.94 2489.54 3280.03 2463.6 3291.95 2442.49C3319.08 2394.23 3307.17 2309.78 3268.12 2274.79C3241.65 2251.27 3205.91 2243.42 3123.19 2243.42H3057.01L3058.33 2371.31ZM3205.91 2301.33C3245.62 2315.21 3245.62 2431.02 3205.91 2444.9C3199.96 2446.71 3180.1 2448.52 3162.23 2448.52H3129.8V2373.12V2297.71H3162.23C3180.1 2297.71 3199.96 2299.52 3205.91 2301.33Z" fill="#F7B500"/>
<path d="M3374.67 2373.12V2502.81H3407.76H3440.85V2448.52V2394.23H3493.8H3546.74V2448.52V2502.81H3579.83H3612.92V2373.12V2243.42H3579.83H3546.74V2288.67V2333.91H3493.8H3440.85V2288.67V2243.42H3407.76H3374.67V2373.12Z" fill="#F7B500"/>
<path d="M3698.95 2373.12V2502.81H3732.04H3765.13V2373.12V2243.42H3732.04H3698.95V2373.12Z" fill="#F7B500"/>
<path d="M4206.55 2248.25C4201.26 2255.49 4109.27 2491.95 4109.27 2497.38C4109.27 2500.39 4123.83 2502.81 4142.36 2502.81C4174.79 2502.81 4174.79 2502.81 4182.73 2478.68L4190.67 2454.55H4241.63H4292.59L4300.53 2478.68L4308.47 2502.81H4344.87C4376.64 2502.81 4381.27 2501.6 4377.96 2493.15C4375.31 2487.73 4354.8 2434.04 4331.64 2373.72C4308.47 2313.4 4287.29 2259.71 4284.65 2253.68C4280.68 2245.84 4272.07 2243.42 4244.94 2243.42C4225.09 2243.42 4207.88 2245.23 4206.55 2248.25ZM4260.16 2356.23C4268.1 2378.54 4273.4 2397.85 4272.07 2399.05C4270.75 2400.26 4256.19 2400.26 4239.65 2399.05L4210.53 2397.24L4223.76 2356.23C4231.04 2333.91 4238.98 2315.81 4240.97 2315.81C4243.62 2315.81 4252.22 2333.91 4260.16 2356.23Z" fill="#F7B500"/>
<path d="M4440.17 2373.12V2502.81H4469.95H4499.07L4501.06 2421.37L4503.04 2339.94L4552.68 2421.37L4602.31 2502.81H4640.7H4678.42V2373.12V2243.42H4644.67H4610.92L4613.56 2324.86C4615.55 2401.47 4612.9 2420.77 4602.97 2395.43C4600.33 2390.01 4578.49 2353.21 4554.66 2314L4510.32 2243.42H4475.25H4440.17V2373.12Z" fill="#F7B500"/>
</svg>
