<svg width="4500" height="4500" viewBox="0 0 4500 4500" fill="none" xmlns="http://www.w3.org/2000/svg">
<path d="M0 2250C0 1007.36 1007.36 0 2250 0V0C3492.64 0 4500 1007.36 4500 2250V2250C4500 3492.64 3492.64 4500 2250 4500V4500C1007.36 4500 0 3492.64 0 2250V2250Z" fill="white"/>
<path d="M2516.57 1243.51C2459.21 1257.76 2345.15 1284.9 2263.5 1303.9C2181.84 1322.9 1780.98 1416.53 1372.69 1512.2C964.399 1607.19 599.977 1692.68 562.86 1700.82L495.374 1716.42L493.35 2497.37L492 3279H869.919H1247.16L1374.04 3135.16C1650.73 2821.02 1716.86 2746.38 1869.38 2573.36C1956.44 2474.3 2073.19 2341.32 2128.53 2278.22C2183.86 2214.44 2231.1 2161.52 2233.13 2159.48C2236.5 2156.77 2546.94 1804.63 2612.4 1729.31L2630.62 1708.28L2631.29 2493.3V3279H3319.65C3698.24 3279 4008 3276.96 4008 3274.93C4008 3272.89 4003.95 3267.47 3999.9 3262.72C3995.18 3257.97 3960.76 3219.29 3923.64 3176.55C3886.53 3134.48 3830.51 3070.7 3798.79 3034.74C3767.08 2999.46 3683.39 2904.47 3613.21 2824.41C3543.02 2744.35 3475.54 2667.68 3464.07 2654.78C3452.59 2641.89 3367.56 2545.55 3275.78 2441.06C3183.33 2336.57 3089.52 2229.37 3066.58 2203.58C3042.96 2177.12 2935.65 2055.67 2827.68 1932.86L2631.29 1709.64V1466.74C2631.29 1333.07 2629.27 1222.48 2626.57 1221.12C2623.2 1219.76 2573.93 1229.94 2516.57 1243.51Z" fill="black"/>
</svg>
