<svg width="500" height="500" viewBox="0 0 500 500" fill="none" xmlns="http://www.w3.org/2000/svg">
<path d="M0 250C0 111.929 111.929 0 250 0V0C388.071 0 500 111.929 500 250V250C500 388.071 388.071 500 250 500V500C111.929 500 0 388.071 0 250V250Z" fill="white"/>
<path d="M279.619 138.168C273.245 139.751 260.573 142.767 251.5 144.878C242.427 146.988 197.886 157.392 152.521 168.022C107.156 178.576 66.6642 188.075 62.5401 188.98L55.0417 190.714L54.8167 277.486L54.6667 364.333H96.6578H138.574L152.671 348.351C183.414 313.446 190.763 305.153 207.709 285.929C217.382 274.923 230.354 260.147 236.503 253.135C242.652 246.049 247.901 240.169 248.125 239.942C248.5 239.641 282.993 200.514 290.266 192.146L292.291 189.809L292.366 277.034V364.333H368.85C410.916 364.333 445.333 364.107 445.333 363.881C445.333 363.655 444.884 363.052 444.434 362.524C443.909 361.996 440.085 357.699 435.96 352.95C431.836 348.276 425.613 341.189 422.088 337.194C418.564 333.273 409.266 322.719 401.468 313.823C393.669 304.927 386.171 296.408 384.896 294.976C383.622 293.544 374.174 282.838 363.976 271.229C353.703 259.619 343.28 247.707 340.731 244.843C338.106 241.902 326.184 228.408 314.186 214.763L292.366 189.96V162.971C292.366 148.119 292.141 135.831 291.841 135.68C291.466 135.529 285.992 136.66 279.619 138.168Z" fill="black"/>
</svg>
